<svg xmlns="http://www.w3.org/2000/svg" xmlns:xlink="http://www.w3.org/1999/xlink" width="218.358" height="496.715" viewBox="0 0 218.358 496.715">
  <defs>
    <clipPath id="clip-path">
      <path id="Path_17" data-name="Path 17" d="M764.1-697.571v262.729a45.742,45.742,0,0,1-45.748,45.737q-25.266,0-45.748,45.737v-393.2a45.765,45.765,0,0,0,45.251,39Z" transform="translate(-672.603 736.567)" fill="#3d2c42"/>
    </clipPath>
    <clipPath id="clip-path-2">
      <path id="Path_20" data-name="Path 20" d="M718.3-556.849a45.692,45.692,0,0,1,45.7,45.681v220.79A45.692,45.692,0,0,1,718.3-244.7a45.692,45.692,0,0,1-45.7-45.68V-511.168A45.692,45.692,0,0,1,718.3-556.849Z" transform="translate(-672.602 556.849)" fill="#0084ff"/>
    </clipPath>
    <clipPath id="clip-path-3">
      <rect id="Rectangle_2" data-name="Rectangle 2" width="96.469" height="317.39" fill="#0084ff"/>
    </clipPath>
    <clipPath id="clip-path-4">
      <path id="Path_19" data-name="Path 19" d="M672.6-244.434h91.5V-556.849H672.6Z" transform="translate(-672.603 556.849)" fill="#0084ff"/>
    </clipPath>
    <clipPath id="clip-path-5">
      <path id="Path_41" data-name="Path 41" d="M734.372-740.815a35.065,35.065,0,0,0,35.057-35.072,35.064,35.064,0,0,0-35.057-35.072,35.065,35.065,0,0,0-35.057,35.072,35.065,35.065,0,0,0,35.057,35.072Z" transform="translate(-699.315 810.959)" fill="#48547a"/>
    </clipPath>
    <clipPath id="clip-path-6">
      <path id="Path_33" data-name="Path 33" d="M926.329-483.418a2.231,2.231,0,0,1-2.238-2.225,2.231,2.231,0,0,1,2.238-2.225,2.231,2.231,0,0,1,2.238,2.225,2.231,2.231,0,0,1-2.238,2.225Zm0-15.577a2.231,2.231,0,0,1-2.238-2.225,2.231,2.231,0,0,1,2.238-2.225,2.231,2.231,0,0,1,2.238,2.225,2.231,2.231,0,0,1-2.238,2.226Zm0-15.577a2.231,2.231,0,0,1-2.238-2.225,2.231,2.231,0,0,1,2.238-2.225,2.231,2.231,0,0,1,2.238,2.225,2.231,2.231,0,0,1-2.238,2.225Zm0-15.577a2.231,2.231,0,0,1-2.238-2.225,2.231,2.231,0,0,1,2.238-2.225,2.231,2.231,0,0,1,2.238,2.225A2.231,2.231,0,0,1,926.329-530.149Zm0-15.577a2.231,2.231,0,0,1-2.238-2.225,2.231,2.231,0,0,1,2.238-2.225,2.231,2.231,0,0,1,2.238,2.225A2.231,2.231,0,0,1,926.329-545.726Zm0-15.577a2.231,2.231,0,0,1-2.238-2.225,2.231,2.231,0,0,1,2.238-2.225,2.231,2.231,0,0,1,2.238,2.225A2.231,2.231,0,0,1,926.329-561.3Zm-14.692,77.885a2.231,2.231,0,0,1-2.238-2.225,2.231,2.231,0,0,1,2.238-2.225,2.231,2.231,0,0,1,2.238,2.225,2.231,2.231,0,0,1-2.236,2.225Zm0-15.577a2.231,2.231,0,0,1-2.238-2.225,2.231,2.231,0,0,1,2.238-2.225,2.231,2.231,0,0,1,2.238,2.225,2.231,2.231,0,0,1-2.236,2.226Zm0-15.577A2.231,2.231,0,0,1,909.4-516.8a2.231,2.231,0,0,1,2.238-2.225,2.231,2.231,0,0,1,2.238,2.225,2.231,2.231,0,0,1-2.236,2.225Zm0-15.577a2.231,2.231,0,0,1-2.238-2.225,2.231,2.231,0,0,1,2.238-2.225,2.231,2.231,0,0,1,2.238,2.225,2.231,2.231,0,0,1-2.236,2.225Zm0-15.577a2.231,2.231,0,0,1-2.238-2.225,2.231,2.231,0,0,1,2.238-2.225,2.231,2.231,0,0,1,2.238,2.225,2.231,2.231,0,0,1-2.236,2.225Zm0-15.577a2.231,2.231,0,0,1-2.238-2.225,2.231,2.231,0,0,1,2.238-2.225,2.231,2.231,0,0,1,2.238,2.225,2.231,2.231,0,0,1-2.236,2.225Zm-14.691,77.885a2.231,2.231,0,0,1-2.238-2.225,2.231,2.231,0,0,1,2.238-2.225,2.231,2.231,0,0,1,2.238,2.225,2.231,2.231,0,0,1-2.236,2.225Zm0-15.577a2.231,2.231,0,0,1-2.238-2.225,2.231,2.231,0,0,1,2.238-2.225,2.231,2.231,0,0,1,2.238,2.225,2.231,2.231,0,0,1-2.236,2.226Zm0-15.577a2.231,2.231,0,0,1-2.238-2.225,2.231,2.231,0,0,1,2.238-2.225,2.231,2.231,0,0,1,2.238,2.225,2.231,2.231,0,0,1-2.236,2.225Zm0-15.577a2.231,2.231,0,0,1-2.238-2.225,2.231,2.231,0,0,1,2.238-2.225,2.231,2.231,0,0,1,2.238,2.225,2.231,2.231,0,0,1-2.236,2.225Zm0-15.577a2.231,2.231,0,0,1-2.238-2.225,2.231,2.231,0,0,1,2.238-2.225,2.231,2.231,0,0,1,2.238,2.225,2.231,2.231,0,0,1-2.236,2.225Zm0-15.577a2.231,2.231,0,0,1-2.238-2.225,2.231,2.231,0,0,1,2.238-2.225,2.231,2.231,0,0,1,2.238,2.225,2.231,2.231,0,0,1-2.236,2.225Zm-15.33,77.885a2.231,2.231,0,0,1-2.238-2.225,2.231,2.231,0,0,1,2.238-2.225,2.231,2.231,0,0,1,2.238,2.225,2.231,2.231,0,0,1-2.236,2.225Zm0-15.577a2.231,2.231,0,0,1-2.238-2.225,2.231,2.231,0,0,1,2.238-2.225,2.231,2.231,0,0,1,2.238,2.225,2.231,2.231,0,0,1-2.236,2.226Zm0-15.577a2.231,2.231,0,0,1-2.238-2.225,2.231,2.231,0,0,1,2.238-2.225,2.231,2.231,0,0,1,2.238,2.225,2.231,2.231,0,0,1-2.236,2.225Zm0-15.577a2.231,2.231,0,0,1-2.238-2.225,2.231,2.231,0,0,1,2.238-2.225,2.231,2.231,0,0,1,2.238,2.225,2.231,2.231,0,0,1-2.236,2.225Zm0-15.577a2.231,2.231,0,0,1-2.238-2.225,2.231,2.231,0,0,1,2.238-2.225,2.231,2.231,0,0,1,2.238,2.225,2.231,2.231,0,0,1-2.236,2.225Zm0-15.577a2.231,2.231,0,0,1-2.238-2.225,2.231,2.231,0,0,1,2.238-2.225,2.231,2.231,0,0,1,2.238,2.225,2.231,2.231,0,0,1-2.236,2.225Zm-14.691,77.885a2.231,2.231,0,0,1-2.238-2.225,2.231,2.231,0,0,1,2.238-2.225,2.231,2.231,0,0,1,2.238,2.225,2.231,2.231,0,0,1-2.236,2.225Zm0-15.577a2.231,2.231,0,0,1-2.238-2.225,2.231,2.231,0,0,1,2.238-2.225,2.231,2.231,0,0,1,2.238,2.225,2.231,2.231,0,0,1-2.236,2.226Zm0-15.577a2.231,2.231,0,0,1-2.238-2.225,2.231,2.231,0,0,1,2.238-2.225,2.231,2.231,0,0,1,2.238,2.225,2.231,2.231,0,0,1-2.236,2.225Zm0-15.577a2.231,2.231,0,0,1-2.238-2.225,2.231,2.231,0,0,1,2.238-2.225,2.231,2.231,0,0,1,2.238,2.225,2.231,2.231,0,0,1-2.236,2.225Zm0-15.577a2.231,2.231,0,0,1-2.238-2.225,2.231,2.231,0,0,1,2.238-2.225,2.231,2.231,0,0,1,2.238,2.225,2.231,2.231,0,0,1-2.236,2.225Zm0-15.577a2.231,2.231,0,0,1-2.238-2.225,2.231,2.231,0,0,1,2.238-2.225,2.231,2.231,0,0,1,2.238,2.225,2.23,2.23,0,0,1-2.236,2.225Zm-14.688,77.885A2.231,2.231,0,0,1,850-485.643a2.231,2.231,0,0,1,2.238-2.225,2.231,2.231,0,0,1,2.238,2.225,2.231,2.231,0,0,1-2.238,2.225Zm0-15.577A2.231,2.231,0,0,1,850-501.22a2.231,2.231,0,0,1,2.238-2.225,2.231,2.231,0,0,1,2.238,2.225,2.231,2.231,0,0,1-2.238,2.226Zm0-15.577A2.231,2.231,0,0,1,850-516.8a2.231,2.231,0,0,1,2.238-2.225,2.231,2.231,0,0,1,2.238,2.225,2.231,2.231,0,0,1-2.238,2.225Zm0-15.577A2.231,2.231,0,0,1,850-532.374a2.231,2.231,0,0,1,2.238-2.225,2.231,2.231,0,0,1,2.238,2.225,2.231,2.231,0,0,1-2.238,2.225Zm0-15.577A2.231,2.231,0,0,1,850-547.951a2.231,2.231,0,0,1,2.238-2.225,2.231,2.231,0,0,1,2.238,2.225,2.231,2.231,0,0,1-2.238,2.225Zm0-15.577A2.231,2.231,0,0,1,850-563.528a2.231,2.231,0,0,1,2.238-2.225,2.231,2.231,0,0,1,2.238,2.225,2.231,2.231,0,0,1-2.238,2.225Zm74.092,171.656a2.231,2.231,0,0,1-2.238-2.225,2.231,2.231,0,0,1,2.238-2.225,2.231,2.231,0,0,1,2.238,2.225A2.231,2.231,0,0,1,926.329-389.647Zm0-15.577a2.231,2.231,0,0,1-2.238-2.225,2.231,2.231,0,0,1,2.238-2.225,2.231,2.231,0,0,1,2.238,2.225A2.231,2.231,0,0,1,926.329-405.224Zm0-15.577a2.231,2.231,0,0,1-2.238-2.225,2.231,2.231,0,0,1,2.238-2.225,2.231,2.231,0,0,1,2.238,2.225A2.231,2.231,0,0,1,926.329-420.8Zm0-15.577a2.231,2.231,0,0,1-2.238-2.225,2.231,2.231,0,0,1,2.238-2.225,2.231,2.231,0,0,1,2.238,2.225,2.231,2.231,0,0,1-2.238,2.225Zm0-15.577a2.231,2.231,0,0,1-2.238-2.225,2.231,2.231,0,0,1,2.238-2.225,2.231,2.231,0,0,1,2.238,2.225,2.231,2.231,0,0,1-2.238,2.225Zm0-15.577a2.231,2.231,0,0,1-2.238-2.225,2.231,2.231,0,0,1,2.238-2.225,2.231,2.231,0,0,1,2.238,2.225A2.231,2.231,0,0,1,926.329-467.532Zm-14.69,77.885a2.231,2.231,0,0,1-2.238-2.225,2.231,2.231,0,0,1,2.238-2.225,2.231,2.231,0,0,1,2.238,2.225,2.231,2.231,0,0,1-2.238,2.225Zm0-15.577a2.231,2.231,0,0,1-2.238-2.225,2.231,2.231,0,0,1,2.238-2.225,2.231,2.231,0,0,1,2.238,2.225,2.231,2.231,0,0,1-2.238,2.225Zm0-15.577a2.231,2.231,0,0,1-2.238-2.225,2.231,2.231,0,0,1,2.238-2.225,2.231,2.231,0,0,1,2.238,2.225,2.231,2.231,0,0,1-2.238,2.225Zm0-15.577A2.231,2.231,0,0,1,909.4-438.6a2.231,2.231,0,0,1,2.238-2.225,2.231,2.231,0,0,1,2.238,2.225,2.231,2.231,0,0,1-2.238,2.225Zm0-15.577a2.231,2.231,0,0,1-2.238-2.225,2.231,2.231,0,0,1,2.238-2.225,2.231,2.231,0,0,1,2.238,2.225,2.231,2.231,0,0,1-2.238,2.225Zm0-15.577a2.231,2.231,0,0,1-2.238-2.225,2.231,2.231,0,0,1,2.238-2.225,2.231,2.231,0,0,1,2.238,2.225,2.231,2.231,0,0,1-2.238,2.225Zm-14.691,77.885a2.231,2.231,0,0,1-2.238-2.225,2.231,2.231,0,0,1,2.238-2.225,2.231,2.231,0,0,1,2.238,2.225,2.231,2.231,0,0,1-2.238,2.225Zm0-15.577a2.231,2.231,0,0,1-2.238-2.225,2.231,2.231,0,0,1,2.238-2.225,2.231,2.231,0,0,1,2.238,2.225,2.231,2.231,0,0,1-2.238,2.225Zm0-15.577a2.231,2.231,0,0,1-2.238-2.225,2.231,2.231,0,0,1,2.238-2.225,2.231,2.231,0,0,1,2.238,2.225,2.231,2.231,0,0,1-2.238,2.225Zm0-15.577a2.231,2.231,0,0,1-2.238-2.225,2.231,2.231,0,0,1,2.238-2.225,2.231,2.231,0,0,1,2.238,2.225,2.231,2.231,0,0,1-2.238,2.225Zm0-15.577a2.231,2.231,0,0,1-2.238-2.225,2.231,2.231,0,0,1,2.238-2.225,2.231,2.231,0,0,1,2.238,2.225,2.231,2.231,0,0,1-2.238,2.225Zm0-15.577a2.231,2.231,0,0,1-2.238-2.225,2.231,2.231,0,0,1,2.238-2.225,2.231,2.231,0,0,1,2.238,2.225,2.231,2.231,0,0,1-2.238,2.225Zm-15.331,77.885a2.231,2.231,0,0,1-2.238-2.225,2.231,2.231,0,0,1,2.238-2.225,2.231,2.231,0,0,1,2.238,2.225A2.231,2.231,0,0,1,881.618-389.647Zm0-15.577a2.231,2.231,0,0,1-2.238-2.225,2.231,2.231,0,0,1,2.238-2.225,2.231,2.231,0,0,1,2.238,2.225A2.231,2.231,0,0,1,881.618-405.224Zm0-15.577a2.231,2.231,0,0,1-2.238-2.225,2.231,2.231,0,0,1,2.238-2.225,2.231,2.231,0,0,1,2.238,2.225A2.231,2.231,0,0,1,881.618-420.8Zm0-15.577a2.231,2.231,0,0,1-2.238-2.225,2.231,2.231,0,0,1,2.238-2.225,2.231,2.231,0,0,1,2.238,2.225,2.231,2.231,0,0,1-2.238,2.225Zm0-15.577a2.231,2.231,0,0,1-2.238-2.225,2.231,2.231,0,0,1,2.238-2.225,2.231,2.231,0,0,1,2.238,2.225,2.231,2.231,0,0,1-2.238,2.225Zm0-15.577a2.231,2.231,0,0,1-2.238-2.225,2.231,2.231,0,0,1,2.238-2.225,2.231,2.231,0,0,1,2.238,2.225A2.231,2.231,0,0,1,881.618-467.532Zm-14.691,77.885a2.231,2.231,0,0,1-2.238-2.225,2.231,2.231,0,0,1,2.238-2.225,2.231,2.231,0,0,1,2.238,2.225A2.231,2.231,0,0,1,866.927-389.647Zm0-15.577a2.231,2.231,0,0,1-2.238-2.225,2.231,2.231,0,0,1,2.238-2.225,2.231,2.231,0,0,1,2.238,2.225A2.231,2.231,0,0,1,866.927-405.224Zm0-15.577a2.231,2.231,0,0,1-2.238-2.225,2.231,2.231,0,0,1,2.238-2.225,2.231,2.231,0,0,1,2.238,2.225A2.231,2.231,0,0,1,866.927-420.8Zm0-15.577a2.231,2.231,0,0,1-2.238-2.225,2.231,2.231,0,0,1,2.238-2.225,2.231,2.231,0,0,1,2.238,2.225,2.231,2.231,0,0,1-2.238,2.225Zm0-15.577a2.231,2.231,0,0,1-2.238-2.225,2.231,2.231,0,0,1,2.238-2.225,2.231,2.231,0,0,1,2.238,2.225,2.231,2.231,0,0,1-2.238,2.225Zm0-15.577a2.231,2.231,0,0,1-2.238-2.225,2.231,2.231,0,0,1,2.238-2.225,2.231,2.231,0,0,1,2.238,2.225A2.231,2.231,0,0,1,866.927-467.532Zm-14.69,77.885A2.231,2.231,0,0,1,850-391.872a2.231,2.231,0,0,1,2.238-2.225,2.231,2.231,0,0,1,2.238,2.225,2.231,2.231,0,0,1-2.238,2.225Zm0-15.577A2.231,2.231,0,0,1,850-407.449a2.231,2.231,0,0,1,2.238-2.225,2.231,2.231,0,0,1,2.238,2.225,2.231,2.231,0,0,1-2.238,2.225Zm0-15.577A2.231,2.231,0,0,1,850-423.026a2.231,2.231,0,0,1,2.238-2.225,2.231,2.231,0,0,1,2.238,2.225,2.231,2.231,0,0,1-2.238,2.225Zm0-15.577A2.231,2.231,0,0,1,850-438.6a2.231,2.231,0,0,1,2.238-2.225,2.231,2.231,0,0,1,2.238,2.225,2.231,2.231,0,0,1-2.238,2.225Zm0-15.577A2.231,2.231,0,0,1,850-454.18a2.231,2.231,0,0,1,2.238-2.225,2.231,2.231,0,0,1,2.238,2.225,2.231,2.231,0,0,1-2.238,2.225Zm0-15.577A2.231,2.231,0,0,1,850-469.757a2.231,2.231,0,0,1,2.238-2.225,2.231,2.231,0,0,1,2.238,2.225,2.231,2.231,0,0,1-2.238,2.225Z" transform="translate(-850 565.754)" fill="#0084ff"/>
    </clipPath>
  </defs>
  <g id="Group_88" data-name="Group 88" transform="translate(-319.642 -674.389)">
    <g id="Group_10" data-name="Group 10" transform="translate(319.642 728.421)" clip-path="url(#clip-path)">
      <path id="Path_16" data-name="Path 16" d="M669.178-739.992h96.469v398.174H669.178Z" transform="translate(-671.664 737.504)" fill="#3d2b41"/>
    </g>
    <g id="Group_13" data-name="Group 13" transform="translate(319.642 858.952)" clip-path="url(#clip-path-2)">
      <g id="Group_12" data-name="Group 12" transform="translate(-2.486 -2.487)" clip-path="url(#clip-path-3)">
        <g id="Group_11" data-name="Group 11" transform="translate(2.486 2.487)" clip-path="url(#clip-path-4)">
          <path id="Path_18" data-name="Path 18" d="M669.178-560.274h96.378v317.127H669.178Z" transform="translate(-671.664 557.786)" fill="#0084ff"/>
        </g>
      </g>
    </g>
    <g id="Group_26" data-name="Group 26" transform="translate(339.035 674.389)" clip-path="url(#clip-path-5)">
      <path id="Path_40" data-name="Path 40" d="M695.89-814.383h75.086v75.119H695.89Z" transform="translate(-698.376 811.896)" fill="#48547a"/>
    </g>
    <g id="Group_22" data-name="Group 22" transform="translate(459.433 674.485)" clip-path="url(#clip-path-6)">
      <path id="Path_32" data-name="Path 32" d="M846.575-569.178h83.54V-388.1h-83.54Z" transform="translate(-849.061 566.691)" fill="#0084ff"/>
    </g>
  </g>
</svg>
