<svg xmlns="http://www.w3.org/2000/svg" xmlns:xlink="http://www.w3.org/1999/xlink" width="91.496" height="468.622" viewBox="0 0 91.496 468.622">
  <defs>
    <clipPath id="clip-path">
      <path id="Path_10" data-name="Path 10" d="M88.9-430.137a45.734,45.734,0,0,1,45.748,45.718V-163.44A45.734,45.734,0,0,1,88.9-117.722H43.151v-266.7A45.734,45.734,0,0,1,88.9-430.137Z" transform="translate(-43.151 430.137)" fill="#0084ff"/>
    </clipPath>
    <clipPath id="clip-path-2">
      <path id="Path_22" data-name="Path 22" d="M102.477-551.311a7.986,7.986,0,0,1-7.956-8.015,7.986,7.986,0,0,1,7.956-8.015,7.986,7.986,0,0,1,7.956,8.015A7.986,7.986,0,0,1,102.477-551.311Zm0,38.932a7.986,7.986,0,0,1-7.956-8.015,7.986,7.986,0,0,1,7.956-8.015,7.986,7.986,0,0,1,7.956,8.015A7.986,7.986,0,0,1,102.477-512.379Zm0-116.8a7.986,7.986,0,0,1-7.956-8.015,7.986,7.986,0,0,1,7.956-8.015,7.986,7.986,0,0,1,7.956,8.015A7.986,7.986,0,0,1,102.477-629.175Zm0,38.932a7.986,7.986,0,0,1-7.956-8.015,7.986,7.986,0,0,1,7.956-8.015,7.986,7.986,0,0,1,7.956,8.015A7.986,7.986,0,0,1,102.477-590.243Z" transform="translate(-94.52 645.205)" fill="#def"/>
    </clipPath>
  </defs>
  <g id="Group_87" data-name="Group 87" transform="translate(-1382 55.222)">
    <g id="Group_5" data-name="Group 5" transform="translate(1473.496 257.193) rotate(180)" clip-path="url(#clip-path)">
      <path id="Path_9" data-name="Path 9" d="M39.726-433.562h96.469v317.39H39.726Z" transform="translate(-42.212 431.074)" fill="#0084ff"/>
    </g>
    <g id="Group_14" data-name="Group 14" transform="translate(1436.201 413.4) rotate(180)" clip-path="url(#clip-path-2)">
      <path id="Path_21" data-name="Path 21" d="M91.1-648.63h20.885v137.8H91.1Z" transform="translate(-93.582 646.143)" fill="#def"/>
    </g>
  </g>
</svg>
